<mxfile host="65bd71144e" pages="2">
    <diagram name="Diagrama Mensageria" id="FsCaODj2YLqixBWISgfM">
        <mxGraphModel dx="1086" dy="424" grid="1" gridSize="10" guides="1" tooltips="1" connect="1" arrows="1" fold="1" page="1" pageScale="1" pageWidth="1169" pageHeight="827" math="0" shadow="0">
            <root>
                <mxCell id="0"/>
                <mxCell id="1" parent="0"/>
                <mxCell id="qnXQLTx1EtuH_YoDIPOF-36" value="&amp;nbsp; Cluster Processamento" style="rounded=0;whiteSpace=wrap;html=1;dashed=1;verticalAlign=top;align=center;" parent="1" vertex="1">
                    <mxGeometry x="733" y="40" width="247" height="150" as="geometry"/>
                </mxCell>
                <mxCell id="qnXQLTx1EtuH_YoDIPOF-13" value="&amp;nbsp; Serviço Mensageria" style="rounded=0;whiteSpace=wrap;html=1;verticalAlign=top;align=center;" parent="1" vertex="1">
                    <mxGeometry x="252" y="43.5" width="290" height="316.5" as="geometry"/>
                </mxCell>
                <mxCell id="qnXQLTx1EtuH_YoDIPOF-20" value="envia para&lt;div&gt;3. processamento&lt;/div&gt;" style="edgeStyle=orthogonalEdgeStyle;rounded=0;orthogonalLoop=1;jettySize=auto;html=1;entryX=0.5;entryY=1;entryDx=0;entryDy=0;entryPerimeter=0;" parent="1" source="qnXQLTx1EtuH_YoDIPOF-21" target="qnXQLTx1EtuH_YoDIPOF-12" edge="1">
                    <mxGeometry relative="1" as="geometry">
                        <mxPoint x="190" y="113.5" as="sourcePoint"/>
                    </mxGeometry>
                </mxCell>
                <mxCell id="qnXQLTx1EtuH_YoDIPOF-21" value="[Serviço Importação]&lt;div&gt;1. Carrega Vídeo&lt;/div&gt;&lt;div&gt;2. Valida Configurações&lt;/div&gt;" style="rounded=0;whiteSpace=wrap;html=1;" parent="1" vertex="1">
                    <mxGeometry x="40" y="83.5" width="140" height="60" as="geometry"/>
                </mxCell>
                <mxCell id="qnXQLTx1EtuH_YoDIPOF-24" value="" style="group" parent="1" vertex="1" connectable="0">
                    <mxGeometry x="299.5" y="96" width="205" height="35" as="geometry"/>
                </mxCell>
                <mxCell id="qnXQLTx1EtuH_YoDIPOF-12" value="" style="shape=cylinder3;whiteSpace=wrap;html=1;boundedLbl=1;backgroundOutline=1;size=15;rotation=90;" parent="qnXQLTx1EtuH_YoDIPOF-24" vertex="1">
                    <mxGeometry x="85" y="-85" width="35" height="205" as="geometry"/>
                </mxCell>
                <mxCell id="qnXQLTx1EtuH_YoDIPOF-19" value="Canal Processamento" style="text;html=1;align=center;verticalAlign=middle;whiteSpace=wrap;rounded=0;" parent="qnXQLTx1EtuH_YoDIPOF-24" vertex="1">
                    <mxGeometry x="20.5" y="3.5" width="150" height="30" as="geometry"/>
                </mxCell>
                <mxCell id="qnXQLTx1EtuH_YoDIPOF-25" value="" style="group" parent="1" vertex="1" connectable="0">
                    <mxGeometry x="299.5" y="200" width="205" height="35" as="geometry"/>
                </mxCell>
                <mxCell id="qnXQLTx1EtuH_YoDIPOF-26" value="" style="shape=cylinder3;whiteSpace=wrap;html=1;boundedLbl=1;backgroundOutline=1;size=15;rotation=90;" parent="qnXQLTx1EtuH_YoDIPOF-25" vertex="1">
                    <mxGeometry x="85" y="-85" width="35" height="205" as="geometry"/>
                </mxCell>
                <mxCell id="qnXQLTx1EtuH_YoDIPOF-27" value="Status Processamento" style="text;html=1;align=center;verticalAlign=middle;whiteSpace=wrap;rounded=0;" parent="qnXQLTx1EtuH_YoDIPOF-25" vertex="1">
                    <mxGeometry x="20.5" y="3.5" width="150" height="30" as="geometry"/>
                </mxCell>
                <mxCell id="qnXQLTx1EtuH_YoDIPOF-30" value="" style="group" parent="1" vertex="1" connectable="0">
                    <mxGeometry x="294.5" y="265" width="205" height="35" as="geometry"/>
                </mxCell>
                <mxCell id="qnXQLTx1EtuH_YoDIPOF-31" value="" style="shape=cylinder3;whiteSpace=wrap;html=1;boundedLbl=1;backgroundOutline=1;size=15;rotation=90;" parent="qnXQLTx1EtuH_YoDIPOF-30" vertex="1">
                    <mxGeometry x="85" y="-85" width="35" height="205" as="geometry"/>
                </mxCell>
                <mxCell id="qnXQLTx1EtuH_YoDIPOF-32" value="Falhas Processamento" style="text;html=1;align=center;verticalAlign=middle;whiteSpace=wrap;rounded=0;" parent="qnXQLTx1EtuH_YoDIPOF-30" vertex="1">
                    <mxGeometry x="20.5" y="3.5" width="150" height="30" as="geometry"/>
                </mxCell>
                <mxCell id="qnXQLTx1EtuH_YoDIPOF-37" style="edgeStyle=orthogonalEdgeStyle;rounded=0;orthogonalLoop=1;jettySize=auto;html=1;entryX=0;entryY=0.5;entryDx=0;entryDy=0;dashed=1;" parent="1" source="qnXQLTx1EtuH_YoDIPOF-45" target="qnXQLTx1EtuH_YoDIPOF-33" edge="1">
                    <mxGeometry relative="1" as="geometry"/>
                </mxCell>
                <mxCell id="qnXQLTx1EtuH_YoDIPOF-40" value="[Serviço Status]&lt;div&gt;- Lista Status Vídeos&lt;/div&gt;&lt;div&gt;- Comanda reprocessamento&lt;/div&gt;" style="rounded=0;whiteSpace=wrap;html=1;" parent="1" vertex="1">
                    <mxGeometry x="730" y="300" width="183" height="60" as="geometry"/>
                </mxCell>
                <mxCell id="qnXQLTx1EtuH_YoDIPOF-42" value="" style="rounded=0;whiteSpace=wrap;html=1;" parent="1" vertex="1">
                    <mxGeometry x="793" y="103.5" width="140" height="60" as="geometry"/>
                </mxCell>
                <mxCell id="qnXQLTx1EtuH_YoDIPOF-41" value="" style="rounded=0;whiteSpace=wrap;html=1;" parent="1" vertex="1">
                    <mxGeometry x="783" y="93.5" width="140" height="60" as="geometry"/>
                </mxCell>
                <mxCell id="qnXQLTx1EtuH_YoDIPOF-33" value="[Serviço Processamento]&lt;div&gt;4. Processa Vídeo&lt;/div&gt;&lt;div&gt;5. Processa Zip&lt;/div&gt;&lt;div&gt;6. Gera URL Download&lt;/div&gt;" style="rounded=0;whiteSpace=wrap;html=1;" parent="1" vertex="1">
                    <mxGeometry x="773" y="83.5" width="140" height="60" as="geometry"/>
                </mxCell>
                <mxCell id="qnXQLTx1EtuH_YoDIPOF-43" value="notifica&lt;div&gt;sucesso&lt;/div&gt;" style="rounded=0;orthogonalLoop=1;jettySize=auto;html=1;exitX=0.25;exitY=1;exitDx=0;exitDy=0;entryX=0.5;entryY=0;entryDx=0;entryDy=0;entryPerimeter=0;" parent="1" source="qnXQLTx1EtuH_YoDIPOF-33" target="qnXQLTx1EtuH_YoDIPOF-26" edge="1">
                    <mxGeometry relative="1" as="geometry"/>
                </mxCell>
                <mxCell id="qnXQLTx1EtuH_YoDIPOF-44" value="notifica&lt;div&gt;falha&lt;/div&gt;" style="rounded=0;orthogonalLoop=1;jettySize=auto;html=1;entryX=0.5;entryY=0;entryDx=0;entryDy=0;entryPerimeter=0;exitX=0.5;exitY=1;exitDx=0;exitDy=0;" parent="1" source="qnXQLTx1EtuH_YoDIPOF-33" target="qnXQLTx1EtuH_YoDIPOF-31" edge="1">
                    <mxGeometry relative="1" as="geometry"/>
                </mxCell>
                <mxCell id="qnXQLTx1EtuH_YoDIPOF-47" value="" style="edgeStyle=orthogonalEdgeStyle;rounded=0;orthogonalLoop=1;jettySize=auto;html=1;entryX=0;entryY=0.5;entryDx=0;entryDy=0;dashed=1;" parent="1" source="qnXQLTx1EtuH_YoDIPOF-12" target="qnXQLTx1EtuH_YoDIPOF-45" edge="1">
                    <mxGeometry relative="1" as="geometry">
                        <mxPoint x="505" y="114" as="sourcePoint"/>
                        <mxPoint x="773" y="114" as="targetPoint"/>
                    </mxGeometry>
                </mxCell>
                <mxCell id="qnXQLTx1EtuH_YoDIPOF-45" value="Fila" style="shape=process;whiteSpace=wrap;html=1;backgroundOutline=1;" parent="1" vertex="1">
                    <mxGeometry x="600" y="96" width="73" height="36.5" as="geometry"/>
                </mxCell>
                <mxCell id="qnXQLTx1EtuH_YoDIPOF-48" style="rounded=0;orthogonalLoop=1;jettySize=auto;html=1;exitX=0.5;exitY=0;exitDx=0;exitDy=0;exitPerimeter=0;entryX=0;entryY=0.5;entryDx=0;entryDy=0;dashed=1;" parent="1" source="qnXQLTx1EtuH_YoDIPOF-26" target="qnXQLTx1EtuH_YoDIPOF-40" edge="1">
                    <mxGeometry relative="1" as="geometry"/>
                </mxCell>
                <mxCell id="qnXQLTx1EtuH_YoDIPOF-54" value="" style="verticalLabelPosition=bottom;shadow=0;dashed=0;align=center;html=1;verticalAlign=top;strokeWidth=1;shape=mxgraph.mockup.misc.mail2;strokeColor=#999999;" parent="1" vertex="1">
                    <mxGeometry x="1060" y="310" width="50" height="30" as="geometry"/>
                </mxCell>
                <mxCell id="qnXQLTx1EtuH_YoDIPOF-55" value="Notifica erro&lt;div&gt;Email&lt;/div&gt;" style="edgeStyle=orthogonalEdgeStyle;rounded=0;orthogonalLoop=1;jettySize=auto;html=1;entryX=-0.04;entryY=0.667;entryDx=0;entryDy=0;entryPerimeter=0;" parent="1" source="qnXQLTx1EtuH_YoDIPOF-40" target="qnXQLTx1EtuH_YoDIPOF-54" edge="1">
                    <mxGeometry relative="1" as="geometry"/>
                </mxCell>
                <mxCell id="qnXQLTx1EtuH_YoDIPOF-56" style="rounded=0;orthogonalLoop=1;jettySize=auto;html=1;exitX=0.5;exitY=0;exitDx=0;exitDy=0;exitPerimeter=0;dashed=1;" parent="1" source="qnXQLTx1EtuH_YoDIPOF-31" edge="1">
                    <mxGeometry relative="1" as="geometry">
                        <mxPoint x="515" y="228" as="sourcePoint"/>
                        <mxPoint x="730" y="330" as="targetPoint"/>
                    </mxGeometry>
                </mxCell>
                <mxCell id="qnXQLTx1EtuH_YoDIPOF-57" value="reprocessamento" style="rounded=0;orthogonalLoop=1;jettySize=auto;html=1;entryX=1;entryY=1;entryDx=0;entryDy=0;exitX=-0.011;exitY=0.117;exitDx=0;exitDy=0;exitPerimeter=0;" parent="1" source="qnXQLTx1EtuH_YoDIPOF-40" target="qnXQLTx1EtuH_YoDIPOF-19" edge="1">
                    <mxGeometry relative="1" as="geometry"/>
                </mxCell>
            </root>
        </mxGraphModel>
    </diagram>
    <diagram id="yGiLQRbx1WqrKYoXPZik" name="Arquitetura AWS">
        <mxGraphModel dx="1086" dy="568" grid="1" gridSize="10" guides="1" tooltips="1" connect="1" arrows="1" fold="1" page="1" pageScale="1" pageWidth="1200" pageHeight="1920" math="0" shadow="0">
            <root>
                <mxCell id="0"/>
                <mxCell id="1" parent="0"/>
                <mxCell id="VEN8kV5IBKTPcNNGzepb-1" value="" style="aspect=fixed;sketch=0;html=1;dashed=0;whitespace=wrap;verticalLabelPosition=bottom;verticalAlign=top;fillColor=#2875E2;strokeColor=#ffffff;points=[[0.005,0.63,0],[0.1,0.2,0],[0.9,0.2,0],[0.5,0,0],[0.995,0.63,0],[0.72,0.99,0],[0.5,1,0],[0.28,0.99,0]];shape=mxgraph.kubernetes.icon2;prIcon=pod" parent="1" vertex="1">
                    <mxGeometry x="560" y="175" width="72.92" height="70" as="geometry"/>
                </mxCell>
                <mxCell id="VEN8kV5IBKTPcNNGzepb-2" value="" style="aspect=fixed;sketch=0;html=1;dashed=0;whitespace=wrap;verticalLabelPosition=bottom;verticalAlign=top;fillColor=#2875E2;strokeColor=#ffffff;points=[[0.005,0.63,0],[0.1,0.2,0],[0.9,0.2,0],[0.5,0,0],[0.995,0.63,0],[0.72,0.99,0],[0.5,1,0],[0.28,0.99,0]];shape=mxgraph.kubernetes.icon2;prIcon=pod" parent="1" vertex="1">
                    <mxGeometry x="928.5400000000001" y="333" width="72.92" height="70" as="geometry"/>
                </mxCell>
                <mxCell id="VEN8kV5IBKTPcNNGzepb-3" value="Simple Email&lt;div&gt;Service (SES)&lt;/div&gt;" style="sketch=0;points=[[0,0,0],[0.25,0,0],[0.5,0,0],[0.75,0,0],[1,0,0],[0,1,0],[0.25,1,0],[0.5,1,0],[0.75,1,0],[1,1,0],[0,0.25,0],[0,0.5,0],[0,0.75,0],[1,0.25,0],[1,0.5,0],[1,0.75,0]];outlineConnect=0;fontColor=#232F3E;fillColor=#DD344C;strokeColor=#ffffff;dashed=0;verticalLabelPosition=bottom;verticalAlign=top;align=center;html=1;fontSize=12;fontStyle=0;aspect=fixed;shape=mxgraph.aws4.resourceIcon;resIcon=mxgraph.aws4.simple_email_service;" parent="1" vertex="1">
                    <mxGeometry x="913.46" y="40" width="78" height="78" as="geometry"/>
                </mxCell>
                <mxCell id="VEN8kV5IBKTPcNNGzepb-4" value="Cognito" style="sketch=0;points=[[0,0,0],[0.25,0,0],[0.5,0,0],[0.75,0,0],[1,0,0],[0,1,0],[0.25,1,0],[0.5,1,0],[0.75,1,0],[1,1,0],[0,0.25,0],[0,0.5,0],[0,0.75,0],[1,0.25,0],[1,0.5,0],[1,0.75,0]];outlineConnect=0;fontColor=#232F3E;fillColor=#DD344C;strokeColor=#ffffff;dashed=0;verticalLabelPosition=bottom;verticalAlign=top;align=center;html=1;fontSize=12;fontStyle=0;aspect=fixed;shape=mxgraph.aws4.resourceIcon;resIcon=mxgraph.aws4.cognito;" parent="1" vertex="1">
                    <mxGeometry x="380" y="323" width="78" height="78" as="geometry"/>
                </mxCell>
                <mxCell id="VEN8kV5IBKTPcNNGzepb-5" style="edgeStyle=orthogonalEdgeStyle;rounded=0;orthogonalLoop=1;jettySize=auto;html=1;entryX=0.005;entryY=0.63;entryDx=0;entryDy=0;entryPerimeter=0;" parent="1" source="VEN8kV5IBKTPcNNGzepb-7" target="VEN8kV5IBKTPcNNGzepb-12" edge="1">
                    <mxGeometry relative="1" as="geometry">
                        <mxPoint x="560" y="202" as="targetPoint"/>
                    </mxGeometry>
                </mxCell>
                <mxCell id="VEN8kV5IBKTPcNNGzepb-6" style="edgeStyle=orthogonalEdgeStyle;rounded=0;orthogonalLoop=1;jettySize=auto;html=1;exitX=0.5;exitY=0;exitDx=0;exitDy=0;exitPerimeter=0;" parent="1" source="VEN8kV5IBKTPcNNGzepb-7" edge="1">
                    <mxGeometry relative="1" as="geometry">
                        <mxPoint x="730" y="60" as="targetPoint"/>
                        <Array as="points">
                            <mxPoint x="419" y="60"/>
                        </Array>
                    </mxGeometry>
                </mxCell>
                <mxCell id="VEN8kV5IBKTPcNNGzepb-7" value="API Gateway" style="sketch=0;points=[[0,0,0],[0.25,0,0],[0.5,0,0],[0.75,0,0],[1,0,0],[0,1,0],[0.25,1,0],[0.5,1,0],[0.75,1,0],[1,1,0],[0,0.25,0],[0,0.5,0],[0,0.75,0],[1,0.25,0],[1,0.5,0],[1,0.75,0]];outlineConnect=0;fontColor=#232F3E;fillColor=#E7157B;strokeColor=#ffffff;dashed=0;verticalLabelPosition=bottom;verticalAlign=top;align=center;html=1;fontSize=12;fontStyle=0;aspect=fixed;shape=mxgraph.aws4.resourceIcon;resIcon=mxgraph.aws4.api_gateway;" parent="1" vertex="1">
                    <mxGeometry x="380" y="175" width="78" height="78" as="geometry"/>
                </mxCell>
                <mxCell id="VEN8kV5IBKTPcNNGzepb-8" style="edgeStyle=orthogonalEdgeStyle;rounded=0;orthogonalLoop=1;jettySize=auto;html=1;entryX=0.5;entryY=1;entryDx=0;entryDy=0;entryPerimeter=0;strokeColor=default;startArrow=classic;startFill=1;" parent="1" source="VEN8kV5IBKTPcNNGzepb-4" target="VEN8kV5IBKTPcNNGzepb-7" edge="1">
                    <mxGeometry relative="1" as="geometry"/>
                </mxCell>
                <mxCell id="VEN8kV5IBKTPcNNGzepb-9" style="edgeStyle=orthogonalEdgeStyle;rounded=0;orthogonalLoop=1;jettySize=auto;html=1;entryX=0;entryY=0.5;entryDx=0;entryDy=0;entryPerimeter=0;" parent="1" source="VEN8kV5IBKTPcNNGzepb-23" target="VEN8kV5IBKTPcNNGzepb-7" edge="1">
                    <mxGeometry relative="1" as="geometry">
                        <mxPoint x="260" y="202" as="sourcePoint"/>
                    </mxGeometry>
                </mxCell>
                <mxCell id="VEN8kV5IBKTPcNNGzepb-10" style="edgeStyle=orthogonalEdgeStyle;rounded=0;orthogonalLoop=1;jettySize=auto;html=1;entryX=0;entryY=0.5;entryDx=0;entryDy=0;entryPerimeter=0;" parent="1" source="VEN8kV5IBKTPcNNGzepb-23" target="VEN8kV5IBKTPcNNGzepb-4" edge="1">
                    <mxGeometry relative="1" as="geometry">
                        <mxPoint x="270" y="202" as="sourcePoint"/>
                    </mxGeometry>
                </mxCell>
                <mxCell id="VEN8kV5IBKTPcNNGzepb-11" value="processam" style="edgeStyle=orthogonalEdgeStyle;rounded=0;orthogonalLoop=1;jettySize=auto;html=1;exitX=0.995;exitY=0.63;exitDx=0;exitDy=0;exitPerimeter=0;" parent="1" source="VEN8kV5IBKTPcNNGzepb-12" target="VEN8kV5IBKTPcNNGzepb-14" edge="1">
                    <mxGeometry relative="1" as="geometry"/>
                </mxCell>
                <mxCell id="VEN8kV5IBKTPcNNGzepb-12" value="Importação" style="aspect=fixed;sketch=0;html=1;dashed=0;whitespace=wrap;verticalLabelPosition=bottom;verticalAlign=top;fillColor=#2875E2;strokeColor=#ffffff;points=[[0.005,0.63,0],[0.1,0.2,0],[0.9,0.2,0],[0.5,0,0],[0.995,0.63,0],[0.72,0.99,0],[0.5,1,0],[0.28,0.99,0]];shape=mxgraph.kubernetes.icon2;prIcon=pod" parent="1" vertex="1">
                    <mxGeometry x="550.54" y="170" width="72.92" height="70" as="geometry"/>
                </mxCell>
                <mxCell id="VEN8kV5IBKTPcNNGzepb-13" value="Processamento" style="aspect=fixed;sketch=0;html=1;dashed=0;whitespace=wrap;verticalLabelPosition=bottom;verticalAlign=top;fillColor=#2875E2;strokeColor=#ffffff;points=[[0.005,0.63,0],[0.1,0.2,0],[0.9,0.2,0],[0.5,0,0],[0.995,0.63,0],[0.72,0.99,0],[0.5,1,0],[0.28,0.99,0]];shape=mxgraph.kubernetes.icon2;prIcon=pod" parent="1" vertex="1">
                    <mxGeometry x="918.5400000000001" y="327" width="72.92" height="70" as="geometry"/>
                </mxCell>
                <mxCell id="VEN8kV5IBKTPcNNGzepb-14" value="SNS" style="sketch=0;points=[[0,0,0],[0.25,0,0],[0.5,0,0],[0.75,0,0],[1,0,0],[0,1,0],[0.25,1,0],[0.5,1,0],[0.75,1,0],[1,1,0],[0,0.25,0],[0,0.5,0],[0,0.75,0],[1,0.25,0],[1,0.5,0],[1,0.75,0]];outlineConnect=0;fontColor=#232F3E;fillColor=#E7157B;strokeColor=#ffffff;dashed=0;verticalLabelPosition=bottom;verticalAlign=top;align=center;html=1;fontSize=12;fontStyle=0;aspect=fixed;shape=mxgraph.aws4.resourceIcon;resIcon=mxgraph.aws4.sns;" parent="1" vertex="1">
                    <mxGeometry x="720" y="175" width="78" height="78" as="geometry"/>
                </mxCell>
                <mxCell id="VEN8kV5IBKTPcNNGzepb-15" value="processam" style="edgeStyle=orthogonalEdgeStyle;rounded=0;orthogonalLoop=1;jettySize=auto;html=1;dashed=1;" parent="1" source="VEN8kV5IBKTPcNNGzepb-16" target="VEN8kV5IBKTPcNNGzepb-13" edge="1">
                    <mxGeometry relative="1" as="geometry"/>
                </mxCell>
                <mxCell id="VEN8kV5IBKTPcNNGzepb-16" value="SQS" style="sketch=0;points=[[0,0,0],[0.25,0,0],[0.5,0,0],[0.75,0,0],[1,0,0],[0,1,0],[0.25,1,0],[0.5,1,0],[0.75,1,0],[1,1,0],[0,0.25,0],[0,0.5,0],[0,0.75,0],[1,0.25,0],[1,0.5,0],[1,0.75,0]];outlineConnect=0;fontColor=#232F3E;fillColor=#E7157B;strokeColor=#ffffff;dashed=0;verticalLabelPosition=bottom;verticalAlign=top;align=center;html=1;fontSize=12;fontStyle=0;aspect=fixed;shape=mxgraph.aws4.resourceIcon;resIcon=mxgraph.aws4.sqs;" parent="1" vertex="1">
                    <mxGeometry x="915.9999999999999" y="175" width="78" height="78" as="geometry"/>
                </mxCell>
                <mxCell id="VEN8kV5IBKTPcNNGzepb-17" value="processam" style="edgeStyle=orthogonalEdgeStyle;rounded=0;orthogonalLoop=1;jettySize=auto;html=1;exitX=1;exitY=0.5;exitDx=0;exitDy=0;exitPerimeter=0;entryX=0;entryY=0.5;entryDx=0;entryDy=0;entryPerimeter=0;dashed=1;" parent="1" source="VEN8kV5IBKTPcNNGzepb-14" target="VEN8kV5IBKTPcNNGzepb-16" edge="1">
                    <mxGeometry relative="1" as="geometry"/>
                </mxCell>
                <mxCell id="VEN8kV5IBKTPcNNGzepb-18" value="erro" style="rounded=0;orthogonalLoop=1;jettySize=auto;html=1;entryX=0;entryY=0.5;entryDx=0;entryDy=0;entryPerimeter=0;exitX=0.953;exitY=0.514;exitDx=0;exitDy=0;exitPerimeter=0;" parent="1" source="VEN8kV5IBKTPcNNGzepb-29" target="VEN8kV5IBKTPcNNGzepb-3" edge="1">
                    <mxGeometry relative="1" as="geometry">
                        <mxPoint x="795.0954000000002" y="78.09999999999991" as="sourcePoint"/>
                        <mxPoint x="1080" y="92" as="targetPoint"/>
                    </mxGeometry>
                </mxCell>
                <mxCell id="VEN8kV5IBKTPcNNGzepb-19" value="URL pré-assinado ZIP" style="edgeStyle=orthogonalEdgeStyle;rounded=0;orthogonalLoop=1;jettySize=auto;html=1;exitX=0.5;exitY=1;exitDx=0;exitDy=0;exitPerimeter=0;" parent="1" source="VEN8kV5IBKTPcNNGzepb-20" target="VEN8kV5IBKTPcNNGzepb-23" edge="1">
                    <mxGeometry relative="1" as="geometry">
                        <Array as="points">
                            <mxPoint x="758" y="448"/>
                            <mxPoint x="243" y="448"/>
                        </Array>
                    </mxGeometry>
                </mxCell>
                <mxCell id="VEN8kV5IBKTPcNNGzepb-20" value="S3" style="sketch=0;points=[[0,0,0],[0.25,0,0],[0.5,0,0],[0.75,0,0],[1,0,0],[0,1,0],[0.25,1,0],[0.5,1,0],[0.75,1,0],[1,1,0],[0,0.25,0],[0,0.5,0],[0,0.75,0],[1,0.25,0],[1,0.5,0],[1,0.75,0]];outlineConnect=0;fontColor=#232F3E;fillColor=#7AA116;strokeColor=#ffffff;dashed=0;verticalLabelPosition=bottom;verticalAlign=top;align=center;html=1;fontSize=12;fontStyle=0;aspect=fixed;shape=mxgraph.aws4.resourceIcon;resIcon=mxgraph.aws4.s3;" parent="1" vertex="1">
                    <mxGeometry x="720" y="333" width="78" height="78" as="geometry"/>
                </mxCell>
                <mxCell id="VEN8kV5IBKTPcNNGzepb-21" value="vídeo" style="rounded=0;orthogonalLoop=1;jettySize=auto;html=1;entryX=0;entryY=0.5;entryDx=0;entryDy=0;entryPerimeter=0;edgeStyle=orthogonalEdgeStyle;exitX=0.5;exitY=1;exitDx=0;exitDy=0;exitPerimeter=0;" parent="1" source="VEN8kV5IBKTPcNNGzepb-12" target="VEN8kV5IBKTPcNNGzepb-20" edge="1">
                    <mxGeometry relative="1" as="geometry">
                        <mxPoint x="790" y="92" as="targetPoint"/>
                    </mxGeometry>
                </mxCell>
                <mxCell id="VEN8kV5IBKTPcNNGzepb-22" value="vídeo&lt;div&gt;&amp;nbsp;/ zip&lt;/div&gt;" style="rounded=0;orthogonalLoop=1;jettySize=auto;html=1;exitX=0.005;exitY=0.63;exitDx=0;exitDy=0;exitPerimeter=0;entryX=1;entryY=0.5;entryDx=0;entryDy=0;entryPerimeter=0;startArrow=classic;startFill=1;" parent="1" source="VEN8kV5IBKTPcNNGzepb-13" target="VEN8kV5IBKTPcNNGzepb-20" edge="1">
                    <mxGeometry relative="1" as="geometry">
                        <mxPoint x="868" y="92" as="targetPoint"/>
                    </mxGeometry>
                </mxCell>
                <mxCell id="VEN8kV5IBKTPcNNGzepb-23" value="" style="sketch=0;outlineConnect=0;fontColor=#232F3E;gradientColor=none;fillColor=#232F3D;strokeColor=none;dashed=0;verticalLabelPosition=bottom;verticalAlign=top;align=center;html=1;fontSize=12;fontStyle=0;aspect=fixed;pointerEvents=1;shape=mxgraph.aws4.user;" parent="1" vertex="1">
                    <mxGeometry x="220" y="263" width="48" height="48" as="geometry"/>
                </mxCell>
                <mxCell id="VEN8kV5IBKTPcNNGzepb-25" value="status,&lt;div&gt;erro,&lt;/div&gt;&lt;div&gt;URL&lt;/div&gt;" style="rounded=0;orthogonalLoop=1;jettySize=auto;html=1;exitX=0.1;exitY=0.2;exitDx=0;exitDy=0;exitPerimeter=0;entryX=0.75;entryY=1;entryDx=0;entryDy=0;entryPerimeter=0;" parent="1" source="VEN8kV5IBKTPcNNGzepb-13" target="VEN8kV5IBKTPcNNGzepb-14" edge="1">
                    <mxGeometry x="0.0023" relative="1" as="geometry">
                        <mxPoint as="offset"/>
                    </mxGeometry>
                </mxCell>
                <mxCell id="VEN8kV5IBKTPcNNGzepb-26" value="processam /&lt;div&gt;status,&amp;nbsp;&lt;/div&gt;&lt;div&gt;URL&lt;/div&gt;" style="edgeStyle=orthogonalEdgeStyle;rounded=0;orthogonalLoop=1;jettySize=auto;html=1;exitX=0;exitY=0.25;exitDx=0;exitDy=0;exitPerimeter=0;entryX=0.005;entryY=0.63;entryDx=0;entryDy=0;entryPerimeter=0;dashed=1;" parent="1" source="VEN8kV5IBKTPcNNGzepb-14" target="VEN8kV5IBKTPcNNGzepb-29" edge="1">
                    <mxGeometry relative="1" as="geometry">
                        <mxPoint x="722.9046000000001" y="78.09999999999991" as="targetPoint"/>
                    </mxGeometry>
                </mxCell>
                <mxCell id="VEN8kV5IBKTPcNNGzepb-27" value="reprocessam" style="edgeStyle=orthogonalEdgeStyle;rounded=0;orthogonalLoop=1;jettySize=auto;html=1;entryX=0.5;entryY=0;entryDx=0;entryDy=0;entryPerimeter=0;exitX=0.5;exitY=1;exitDx=0;exitDy=0;exitPerimeter=0;" parent="1" source="VEN8kV5IBKTPcNNGzepb-29" target="VEN8kV5IBKTPcNNGzepb-14" edge="1">
                    <mxGeometry relative="1" as="geometry">
                        <mxPoint x="760" y="122" as="sourcePoint"/>
                    </mxGeometry>
                </mxCell>
                <mxCell id="VEN8kV5IBKTPcNNGzepb-28" value="" style="group" parent="1" vertex="1" connectable="0">
                    <mxGeometry x="722.5400000000001" y="42" width="77.45999999999992" height="70" as="geometry"/>
                </mxCell>
                <mxCell id="VEN8kV5IBKTPcNNGzepb-29" value="Status" style="aspect=fixed;sketch=0;html=1;dashed=0;whitespace=wrap;verticalLabelPosition=bottom;verticalAlign=top;fillColor=#2875E2;strokeColor=#ffffff;points=[[0.005,0.63,0],[0.1,0.2,0],[0.9,0.2,0],[0.5,0,0],[0.995,0.63,0],[0.72,0.99,0],[0.5,1,0],[0.28,0.99,0]];shape=mxgraph.kubernetes.icon2;prIcon=pod" parent="VEN8kV5IBKTPcNNGzepb-28" vertex="1">
                    <mxGeometry width="72.92" height="70" as="geometry"/>
                </mxCell>
                <mxCell id="VEN8kV5IBKTPcNNGzepb-30" value="" style="strokeWidth=2;html=1;shape=mxgraph.flowchart.database;whiteSpace=wrap;" parent="VEN8kV5IBKTPcNNGzepb-28" vertex="1">
                    <mxGeometry x="47.45999999999992" y="38.5" width="30" height="30" as="geometry"/>
                </mxCell>
                <mxCell id="XAclprjzzqjU7i3vSfDc-1" value="API" style="rounded=0;whiteSpace=wrap;html=1;fontSize=8;fontStyle=1" vertex="1" parent="1">
                    <mxGeometry x="723" y="38" width="26" height="15" as="geometry"/>
                </mxCell>
                <mxCell id="XAclprjzzqjU7i3vSfDc-2" value="API" style="rounded=0;whiteSpace=wrap;html=1;fontSize=8;fontStyle=1" vertex="1" parent="1">
                    <mxGeometry x="550.54" y="170" width="26" height="15" as="geometry"/>
                </mxCell>
                <mxCell id="XAclprjzzqjU7i3vSfDc-3" value="" style="strokeWidth=2;html=1;shape=mxgraph.flowchart.document2;whiteSpace=wrap;size=0.25;" vertex="1" parent="1">
                    <mxGeometry x="980" y="377" width="33.33" height="20" as="geometry"/>
                </mxCell>
                <mxCell id="XAclprjzzqjU7i3vSfDc-4" value="" style="strokeWidth=2;html=1;shape=mxgraph.flowchart.document2;whiteSpace=wrap;size=0.25;" vertex="1" parent="1">
                    <mxGeometry x="599.5899999999999" y="220" width="33.33" height="20" as="geometry"/>
                </mxCell>
            </root>
        </mxGraphModel>
    </diagram>
</mxfile>